<?xml version="1.0" encoding="utf-8" ?><svg xmlns="http://www.w3.org/2000/svg" xmlns:xlink="http://www.w3.org/1999/xlink" width="1024" height="1024" viewBox="0 0 1024 1024"><path fill="#C39BD3" d="M219.029 71.6864C261.005 112.995 305.455 153.104 348.257 193.642L396.268 238.802C402.634 244.808 415.794 257.97 422.198 262.679L422.58 262.947C469.895 244.467 521.786 241.161 571.064 253.487C582.743 256.388 589.9 260.165 599.901 263.1C599.158 264.991 519.232 339.577 511.379 345.785C533.402 366.894 555.547 387.874 577.815 408.724C588.35 418.551 599.751 428.679 610.003 438.685C667.834 412.006 746.836 427 802.158 453.997C804.76 455.266 815.93 461.963 817.855 461.383L820.722 464.075C842.733 484.033 863.762 504.512 885.711 524.551C899.701 512.111 915.895 497.34 930.438 485.914C917.243 465.591 944.87 452.05 953.678 469.478C955.432 472.915 955.671 476.928 954.336 480.548C952.986 484.306 950.177 487.361 946.545 489.021C941.697 491.215 937.115 490.244 932.643 487.79L911.393 511.582C905.745 517.846 898.193 525.803 893.39 532.646C907.12 544.421 925.574 560.657 938.202 573.556C934.205 577.874 928.228 583.101 923.792 587.192L899.776 609.382L822.321 681.616L704.796 792.299C687.857 808.229 670.055 826.804 652.57 841.873C651.276 843.452 643.225 850.633 640.987 852.765C630.814 862.538 620.586 872.253 610.305 881.912C577.034 913.246 543.94 944.767 511.025 976.474C506.321 972.625 494.827 960.763 489.64 955.82C471.87 939.063 454.273 922.123 436.852 905.003C421.731 890.345 405.467 875.973 390.401 861.107C383.679 854.474 376.093 847.915 369.686 841.032C358.222 831.202 346.512 819.62 335.493 809.262C317.158 792.228 298.951 775.057 280.873 757.75L159.575 643.868L106.464 594.257C101.892 589.981 87.8482 577.787 85.0273 573.655L84.7589 573.036C86.2993 570.902 91.8101 566.197 93.9682 564.216C99.8318 558.817 105.659 553.38 111.45 547.904C141.34 519.762 171.378 491.777 201.563 463.952C202.965 462.713 204.38 461.571 205.83 460.388C209.329 456.74 216.063 451.493 218.558 448.447C219.201 436.85 219.023 423.861 219.016 412.209L218.855 349.731L219.003 165.968C218.984 134.753 218.46 102.868 219.029 71.6864ZM511.122 757.582L511.348 757.194C518.825 748.697 529.344 738.446 537.398 730.091L575.816 689.566C579.416 694.23 588.964 701.802 593.772 706.057L634.48 742.467C638.228 745.872 648.344 754.559 651.1 757.692C651.369 757.745 651.642 757.606 651.909 757.544C652.257 752.626 652.015 745.415 652.03 740.238C652.032 728.537 652.122 716.837 652.299 705.137C653.428 653.926 675.177 605.508 711.014 569.252C722.236 557.9 733.824 547.066 745.351 536.033C754.609 526.194 767.017 514.965 777.022 505.616C791.71 491.897 806.277 478.05 820.722 464.075L817.855 461.383C815.93 461.963 804.76 455.266 802.158 453.997C746.836 427 667.834 412.006 610.003 438.685C587.792 449.747 568.66 465.183 560.452 489.504C558.956 493.899 558.025 498.467 557.684 503.098C556.725 515.933 557.524 539.582 557.511 553.359L557.438 590.256C557.425 596.39 557.184 604.84 557.501 610.825C557.492 632.653 557.745 655.074 557.372 676.847C528.741 664.398 499.847 662.822 470.533 674.449C467.991 675.443 465.498 676.557 463.062 677.787C462.6 662.143 462.916 644.488 462.933 628.755L462.849 548.524C462.763 512.696 468.347 482.15 437.354 456.123C378.199 406.444 289.242 423.916 224.017 451.235C219.961 452.933 209.188 460.537 205.83 460.388C204.38 461.571 202.965 462.713 201.563 463.952C217.429 478.39 233.018 494.144 248.494 509.064C257.594 517.837 268.021 526.769 276.616 535.871C288.377 547.705 301.072 558.251 312.539 570.352C353.422 613.491 373.435 669.265 369.78 728.593C369.601 731.497 369.462 756.336 369.942 757.637C376.329 752.465 386.867 742.36 393.332 736.577L445.646 689.395C463.492 706.672 479.91 726.099 497.695 743.547C501.091 746.879 508.209 755.258 511.122 757.582Z"/><path fill="#7B2FBE" d="M462.623 689.013C489.664 688.521 517.064 689.746 544.158 689.169C548.569 689.076 553.331 689.126 557.711 689.599C551.588 696.922 540.58 707.82 533.737 715.177C526.782 723.202 518.143 732.164 510.707 739.642C494.246 723.305 479.581 704.65 462.623 689.013Z"/><path fill="#9B59B6" d="M219.029 71.6864C261.005 112.995 305.455 153.104 348.257 193.642L396.268 238.802C402.634 244.808 415.794 257.97 422.198 262.679L422.58 262.947C469.895 244.467 521.786 241.161 571.064 253.487C582.743 256.388 589.9 260.165 599.901 263.1C599.158 264.991 519.232 339.577 511.379 345.785C533.402 366.894 555.547 387.874 577.815 408.724C588.35 418.551 599.751 428.679 610.003 438.685C587.792 449.747 568.66 465.183 560.452 489.504C558.956 493.899 558.025 498.467 557.684 503.098C556.725 515.933 557.524 539.582 557.511 553.359L557.438 590.256C557.425 596.39 557.184 604.84 557.501 610.825C557.492 632.653 557.745 655.074 557.372 676.847C528.741 664.398 499.847 662.822 470.533 674.449C467.991 675.443 465.498 676.557 463.062 677.787C456.357 681.746 451.76 684.467 445.646 689.395L393.332 736.577C386.867 742.36 376.329 752.465 369.942 757.637C369.462 756.336 369.601 731.497 369.78 728.593C373.435 669.265 353.422 613.491 312.539 570.352C301.072 558.251 288.377 547.705 276.616 535.871C268.021 526.769 257.594 517.837 248.494 509.064C233.018 494.144 217.429 478.39 201.563 463.952C202.965 462.713 204.38 461.571 205.83 460.388C209.329 456.74 216.063 451.493 218.558 448.447C219.201 436.85 219.023 423.861 219.016 412.209L218.855 349.731L219.003 165.968C218.984 134.753 218.46 102.868 219.029 71.6864ZM276.616 535.871C288.377 547.705 301.072 558.251 312.539 570.352C353.422 613.491 373.435 669.265 369.78 728.593C369.601 731.497 369.462 756.336 369.942 757.637C376.329 752.465 386.867 742.36 393.332 736.577L445.646 689.395C451.76 684.467 456.357 681.746 463.062 677.787C462.6 662.143 462.916 644.488 462.933 628.755L462.849 548.524C462.763 512.696 468.347 482.15 437.354 456.123C378.199 406.444 289.242 423.916 224.017 451.235C219.961 452.933 209.188 460.537 205.83 460.388C204.38 461.571 202.965 462.713 201.563 463.952C217.429 478.39 233.018 494.144 248.494 509.064C257.594 517.837 268.021 526.769 276.616 535.871Z"/><path fill="#7B2FBE" d="M205.83 460.388C209.188 460.537 219.961 452.933 224.017 451.235C289.242 423.916 378.199 406.444 437.354 456.123C468.347 482.15 462.763 512.696 462.849 548.524L462.933 628.755C462.916 644.488 462.6 662.143 463.062 677.787C456.357 681.746 451.76 684.467 445.646 689.395L393.332 736.577C386.867 742.36 376.329 752.465 369.942 757.637C369.462 756.336 369.601 731.497 369.78 728.593C373.435 669.265 353.422 613.491 312.539 570.352C301.072 558.251 288.377 547.705 276.616 535.871C268.021 526.769 257.594 517.837 248.494 509.064C233.018 494.144 217.429 478.39 201.563 463.952C202.965 462.713 204.38 461.571 205.83 460.388ZM329.342 554.372C330.596 559 332.027 563.964 333.092 568.615C362.829 561.66 391.484 562.873 418.112 579.407C422.622 582.218 426.879 585.416 430.837 588.963C434.651 592.411 438.243 596.097 441.591 599.999C445.206 597.46 449.983 594.396 453.264 591.705C429.273 562.616 396.291 548.196 358.528 549.716C348.561 550.161 338.88 551.166 329.342 554.372ZM391.216 525.682C404.195 523.608 413.076 511.461 411.117 498.464C409.158 485.468 397.09 476.479 384.077 478.323C370.899 480.19 361.771 492.443 363.755 505.604C365.74 518.765 378.074 527.783 391.216 525.682Z"/><path fill="#C39BD3" d="M422.58 262.947C469.895 244.467 521.786 241.161 571.064 253.487C582.743 256.388 589.9 260.165 599.901 263.1C599.158 264.991 519.232 339.577 511.379 345.785C533.402 366.894 555.547 387.874 577.815 408.724C588.35 418.551 599.751 428.679 610.003 438.685C587.792 449.747 568.66 465.183 560.452 489.504C558.956 493.899 558.025 498.467 557.684 503.098C556.725 515.933 557.524 539.582 557.511 553.359L557.438 590.256C557.425 596.39 557.184 604.84 557.501 610.825C557.335 611.334 557.063 611.786 556.813 612.272C555.336 611.971 513.728 572.918 509.497 568.392L509.539 344.363C503.883 338.627 496.566 332.16 490.603 326.568L441.129 280.445C435.31 274.92 428.004 268.707 422.58 262.947Z"/><path fill="#7B2FBE" d="M219.029 71.6864C261.005 112.995 305.455 153.104 348.257 193.642L396.268 238.802C402.634 244.808 415.794 257.97 422.198 262.679C409.167 268.937 398.186 278.147 387.494 287.701C368.749 270.136 349.891 252.692 330.921 235.37C307.465 213.526 282.843 190.056 259.001 168.837L258.961 315.876C258.959 347.534 258.656 379.684 258.996 411.294C251.023 418.456 243.102 425.674 235.233 432.949C230.3 437.574 223.677 444.258 218.558 448.447C219.201 436.85 219.023 423.861 219.016 412.209L218.855 349.731L219.003 165.968C218.984 134.753 218.46 102.868 219.029 71.6864Z"/><path fill="#C39BD3" d="M290.379 253.277C293.065 255.196 297.803 259.787 300.425 262.203L318.64 279.101C331.984 291.503 345.462 303.14 358.754 315.365C348.827 325.329 336.74 336.167 326.33 345.902C314.498 357.079 302.235 367.849 290.506 379.081C290.251 337.559 289.964 294.716 290.379 253.277Z"/><path fill="#7B2FBE" d="M610.003 438.685C667.834 412.006 746.836 427 802.158 453.997C804.76 455.266 815.93 461.963 817.855 461.383L820.722 464.075C806.277 478.05 791.71 491.897 777.022 505.616C767.017 514.965 754.609 526.194 745.351 536.033C733.824 547.066 722.236 557.9 711.014 569.252C675.177 605.508 653.428 653.926 652.299 705.137C652.122 716.837 652.032 728.537 652.03 740.238C652.015 745.415 652.257 752.626 651.909 757.544C651.642 757.606 651.369 757.745 651.1 757.692C648.344 754.559 638.228 745.872 634.48 742.467L593.772 706.057C588.964 701.802 579.416 694.23 575.816 689.566C572.944 685.303 562.067 679.476 557.372 676.847C557.745 655.074 557.492 632.653 557.501 610.825C557.184 604.84 557.425 596.39 557.438 590.256L557.511 553.359C557.524 539.582 556.725 515.933 557.684 503.098C558.025 498.467 558.956 493.899 560.452 489.504C568.66 465.183 587.792 449.747 610.003 438.685ZM568.742 591.618C572.634 594.576 576.55 597.502 580.49 600.395C585.914 594.468 590.084 590.274 596.313 584.996C617.802 568.724 644.87 561.646 671.573 565.316C677.229 566.021 682.79 567.344 688.157 569.262C690.179 564.211 691.139 559.455 692.735 554.391C681.953 550.824 666.192 548.992 654.826 549.719C623.721 551.167 587.225 565.396 568.742 591.618ZM634.741 525.997C643.346 525.266 650.892 519.964 654.497 512.117C658.102 504.27 657.209 495.091 652.159 488.086C647.11 481.081 638.683 477.333 630.099 478.274C617.049 479.703 607.576 491.362 608.847 504.429C610.118 517.495 621.661 527.109 634.741 525.997Z"/><path fill="#7B2FBE" d="M369.657 757.732C375.656 764.736 383.074 770.69 390.037 776.939C416.049 800.285 433.978 831.276 440.912 865.566C441.486 868.403 441.958 871.198 442.223 874.065L582.302 874.166C583.78 866.068 585.702 855.585 588.327 847.675C595.099 827.27 607.294 803.138 621.738 787.128C630.744 777.145 642.664 767.798 651.991 758.345C651.983 767.346 651.508 839.76 652.57 841.873C651.276 843.452 643.225 850.633 640.987 852.765C630.814 862.538 620.586 872.253 610.305 881.912C577.034 913.246 543.94 944.767 511.025 976.474C506.321 972.625 494.827 960.763 489.64 955.82C471.87 939.063 454.273 922.123 436.852 905.003C421.731 890.345 405.467 875.973 390.401 861.107C383.679 854.474 376.093 847.915 369.686 841.032C369.701 813.718 370.48 784.899 369.657 757.732Z"/><path fill="#9B59B6" d="M930.438 485.914C917.243 465.591 944.87 452.05 953.678 469.478C955.432 472.915 955.671 476.928 954.336 480.548C952.986 484.306 950.177 487.361 946.545 489.021C941.697 491.215 937.115 490.244 932.643 487.79L911.393 511.582C905.745 517.846 898.193 525.803 893.39 532.646C907.12 544.421 925.574 560.657 938.202 573.556C935.024 573.359 931.618 573.485 928.418 573.428C909.481 573.087 890.438 573.364 871.521 572.483C836.425 602.835 801.572 633.467 766.968 664.379C756.638 673.427 745.919 682.325 735.479 691.284C722.371 702.532 709.397 714.393 696.007 725.243C696.187 725.544 696.363 725.847 696.535 726.152C698.705 730.03 699.435 734.576 698.144 738.873C697.035 742.533 694.416 745.546 690.946 747.153C672.734 755.762 660.444 728.881 679.312 721.235C683.935 719.362 688.805 720.831 693.107 722.817L779.342 631.61L817.114 591.509C824.35 583.788 832.542 575.389 839.373 567.435C808.144 563.032 773.588 549.595 745.351 536.033C754.609 526.194 767.017 514.965 777.022 505.616C791.71 491.897 806.277 478.05 820.722 464.075C842.733 484.033 863.762 504.512 885.711 524.551C899.701 512.111 915.895 497.34 930.438 485.914Z"/><path fill="#9B59B6" d="M85.0273 573.655L84.7589 573.036C86.2993 570.902 91.8101 566.197 93.9682 564.216C99.8318 558.817 105.659 553.38 111.45 547.904C141.34 519.762 171.378 491.777 201.563 463.952C217.429 478.39 233.018 494.144 248.494 509.064C257.594 517.837 268.021 526.769 276.616 535.871C267.009 540.167 259.234 544.383 249.261 548.348C210.256 563.513 168.932 571.85 127.099 572.993C121.355 573.132 87.1088 572.615 85.0273 573.655Z"/><path fill="#7B2FBE" d="M511.107 758.332C537.089 789.717 574.308 802.71 614.114 794.014C595.871 808.91 568.949 822.503 546.057 827.795C506.184 837.012 470.702 830.612 435.091 811.097C425.484 805.832 417.192 799.69 407.99 793.892C418.403 796.821 427.007 797.378 437.75 796.482C468.296 793.934 490.813 781.553 510.35 758.306L511.107 758.332Z"/><path fill="#9B59B6" d="M369.942 757.637C376.329 752.465 386.867 742.36 393.332 736.577L445.646 689.395C463.492 706.672 479.91 726.099 497.695 743.547C501.091 746.879 508.209 755.258 511.122 757.582L511.107 758.332L510.35 758.306C508.41 756.803 468.047 757.763 461.526 757.815C430.998 758.098 400.468 758.039 369.942 757.637Z"/><path fill="#9B59B6" d="M511.348 757.194C518.825 748.697 529.344 738.446 537.398 730.091L575.816 689.566C579.416 694.23 588.964 701.802 593.772 706.057L634.48 742.467C638.228 745.872 648.344 754.559 651.1 757.692C641.976 757.07 622.803 757.813 612.802 757.845C589.953 757.941 567.103 757.842 544.256 757.549C535.678 757.523 519.133 758.017 511.348 757.194Z"/><path fill="#9B59B6" d="M600.351 263.128C617.275 248.472 634.878 231.102 651.377 215.685L754.34 119.37C764.913 109.558 775.415 99.6693 785.844 89.7045C790.648 85.0988 799.991 75.5092 804.962 71.9428C804.598 100.586 804.563 129.233 804.857 157.878C804.883 169.525 804.121 190.673 805.023 201.386C838.414 204.693 864.562 227.479 866.996 262.019C867.334 266.82 867.096 271.002 867.128 275.73C920.84 282.631 927.239 355.536 876.265 371.424C873.455 372.3 869.971 372.725 867.036 373.181C866.775 381.823 866.616 389.127 864.182 397.432C856.588 423.339 832.819 442.688 805.81 444.369C805.377 444.396 805.137 447.781 805.113 448.304C805.447 451.001 814.979 458.296 817.855 461.383C815.93 461.963 804.76 455.266 802.158 453.997C746.836 427 667.834 412.006 610.003 438.685C599.751 428.679 588.35 418.551 577.815 408.724C555.547 387.874 533.402 366.894 511.379 345.785C519.232 339.577 599.158 264.991 599.901 263.1L600.351 263.128ZM805.196 427.775C821.473 425.028 831.432 421.347 841.837 407.271C845.82 401.883 849.29 394.277 850.36 387.622C851.071 382.455 851.195 377.365 851.297 372.157C802.975 362.355 797.55 291.294 851.505 276.599C851.572 267.925 852.082 260.073 849.217 251.733C841.95 230.579 826.513 220.598 805.24 217.43L805.196 427.775Z"/><path fill="#7B2FBE" d="M600.351 263.128C617.275 248.472 634.878 231.102 651.377 215.685L754.34 119.37C764.913 109.558 775.415 99.6693 785.844 89.7045C790.648 85.0988 799.991 75.5092 804.962 71.9428C804.598 100.586 804.563 129.233 804.857 157.878C804.883 169.525 804.121 190.673 805.023 201.386C838.414 204.693 864.562 227.479 866.996 262.019C867.334 266.82 867.096 271.002 867.128 275.73C920.84 282.631 927.239 355.536 876.265 371.424C873.455 372.3 869.971 372.725 867.036 373.181C866.775 381.823 866.616 389.127 864.182 397.432C856.588 423.339 832.819 442.688 805.81 444.369C805.377 444.396 805.137 447.781 805.113 448.304C801.724 445.846 793.791 437.857 790.318 434.55C781.382 425.986 772.301 417.575 763.078 409.321C763.76 400.994 763.375 387.164 763.385 378.539C763.453 358.6 763.407 338.661 763.246 318.722L763.482 168.713C752.405 179.715 738.034 192.271 726.402 203.148L636.111 287.821C627.042 279.87 618.897 272.345 607.886 267.166C605.912 266.237 602.724 264.694 600.939 263.522L600.351 263.128ZM805.196 427.775C821.473 425.028 831.432 421.347 841.837 407.271C845.82 401.883 849.29 394.277 850.36 387.622C851.071 382.455 851.195 377.365 851.297 372.157C802.975 362.355 797.55 291.294 851.505 276.599C851.572 267.925 852.082 260.073 849.217 251.733C841.95 230.579 826.513 220.598 805.24 217.43L805.196 427.775Z"/><path fill="#C39BD3" d="M733.375 253.898C733.8 256.803 733.662 266.028 733.659 269.248L733.595 298.912L733.509 350.287C733.492 360.55 733.686 371.64 733.217 381.843C721.99 370.871 710.638 360.027 699.163 349.313C688.21 338.365 677.086 327.951 665.966 317.195C688.705 296.385 711.177 275.284 733.375 253.898Z"/></svg>